<svg width="26" height="26" viewBox="0 0 26 26" fill="none" xmlns="http://www.w3.org/2000/svg">
<mask id="mask0_181_77" style="mask-type:alpha" maskUnits="userSpaceOnUse" x="0" y="0" width="26" height="26">
<rect width="26" height="26" fill="#D9D9D9"/>
</mask>
<g mask="url(#mask0_181_77)">
<path d="M0.848433 2.00167C0.380372 2.00167 0 2.3886 0 2.86468C0 3.34075 0.380399 3.72768 0.848433 3.72768H4.23171C5.63409 7.26356 7.01718 10.8048 8.40907 14.3461L7.12762 17.4808C7.02069 17.7429 7.05049 18.0567 7.20476 18.2921C7.35902 18.5275 7.63424 18.6755 7.91295 18.6755H22.0436C22.4924 18.6826 22.9043 18.2689 22.9043 17.8125C22.9043 17.356 22.4924 16.9441 22.0436 16.9495H9.18564L9.91838 15.1699L23.5285 14.0644C23.8843 14.0359 24.2069 13.7542 24.2875 13.3993L25.9826 5.92461C26.0931 5.42176 25.6601 4.87258 25.1517 4.87436H6.50872L5.59015 2.5385C5.46393 2.22289 5.13964 2 4.80481 2L0.848433 2.00167ZM7.18901 6.60199H24.0841L22.7676 12.406L9.88133 13.4473L7.18901 6.60199ZM10.7388 19.2513C9.18745 19.2513 7.913 20.5494 7.913 22.1256C7.913 23.7037 9.1892 25 10.7388 25C12.2902 25 13.5646 23.7019 13.5646 22.1256C13.5646 20.5476 12.2884 19.2513 10.7388 19.2513ZM19.2182 19.2513C17.6668 19.2513 16.3924 20.5494 16.3924 22.1256C16.3924 23.7037 17.6686 25 19.2182 25C20.7696 25 22.044 23.7019 22.044 22.1256C22.044 20.5476 20.7678 19.2513 19.2182 19.2513ZM10.7388 20.9755C11.3734 20.9755 11.8695 21.4801 11.8695 22.1256C11.8695 22.7711 11.3734 23.2757 10.7388 23.2757C10.1042 23.2757 9.60816 22.771 9.60816 22.1256C9.60816 21.4801 10.1043 20.9755 10.7388 20.9755ZM19.2182 20.9755C19.8528 20.9755 20.3489 21.4801 20.3489 22.1256C20.3489 22.7711 19.8528 23.2757 19.2182 23.2757C18.5836 23.2757 18.0876 22.771 18.0876 22.1256C18.0876 21.4801 18.5837 20.9755 19.2182 20.9755Z" fill="#32A0F0"/>
</g>
</svg>
