<?xml version="1.0" encoding="UTF-8"?>
<svg width="100pt" height="100pt" version="1.1" viewBox="0 0 100 100" xmlns="http://www.w3.org/2000/svg">
 <g fill="#fff">
  <path d="m95.898 32.301c-1.1016-1.1016-2.6992-1.8008-4.1992-1.6992h-0.19922c-2.3008 0.10156-4.3008 1.6992-5.1016 3.8984l-5.3008 15.801c-1.1016-0.80078-2.3984-1.1016-3.8008-1-1.6992 0.10156-3.1992 0.80078-4.3984 2.1016l-10.898 12.598c-2.3984 2.6992-3.8008 6.1992-4 9.8008l-1.1992 18.699c0 0.5 0.19922 1 0.5 1.3984 0.39844 0.39844 0.89844 0.60156 1.3984 0.60156h17.699c0.89844 0 1.6992-0.60156 1.8984-1.5l1.3984-7.5 10.203-7.5c2.8984-2 4.6992-5.1992 5-8.8008l2.6016-32.602c0.10156-1.5977-0.5-3.1992-1.6016-4.2969zm-4.7969 36.598c-0.19922 2.3984-1.3984 4.6016-3.3984 6l-11 7.8984c-0.39844 0.30078-0.69922 0.69922-0.80078 1.1992l-1.1992 6.6992-14.004 0.003907 1-16.699c0.19922-2.8008 1.3008-5.5 3.1016-7.5l11-12.602c0.5-0.5 1.1016-0.80078 1.6992-0.80078 0.60156 0 1.1016 0.10156 1.5 0.5 0.39844 0.30078 0.69922 0.69922 0.89844 1.1992v0.10156c0.19922 0.80078 0.10156 1.6016-0.39844 2.1992l-9 11.301c-0.60156 0.80078-0.5 2 0.30078 2.6016s2 0.5 2.6016-0.30078l9-11.301c1.1016-1.3984 1.6016-3.3008 1.1992-5.1016l6.3984-18.598c0.30078-0.69922 0.89844-1.3008 1.8008-1.3008 0.5 0 1.1016 0.19922 1.3984 0.60156 0.39844 0.39844 0.60156 0.89844 0.5 1.3984z"/>
  <path d="m38 64-11-12.602c-1.1016-1.3008-2.6992-2-4.3008-2.1016-1.3984-0.10156-2.6992 0.30078-3.8008 1l-5.3008-15.898c-0.69922-2.1992-2.8008-3.6992-5.1992-3.8984-1.6016-0.10156-3.1992 0.60156-4.3008 1.6992-1.0977 1.1992-1.6992 2.8008-1.5977 4.4023l2.6016 32.602c0.30078 3.5 2.1016 6.6992 4.8984 8.6992l10.301 7.3984 1.3984 7.5c0.19922 0.89844 0.89844 1.5 1.8984 1.5h17.699c0.5 0 1-0.19922 1.3984-0.60156 0.39844-0.39844 0.5-0.89844 0.5-1.3984l-1.1953-18.602c-0.19922-3.5977-1.6016-7.0977-4-9.6992zm-12.801 26.699-1.1992-6.8008c-0.10156-0.5-0.39844-0.89844-0.80078-1.1992l-11-7.8984c-1.8984-1.3984-3.1992-3.5-3.3984-6l-2.5-32.402c0-0.5 0.19922-1.1016 0.5-1.5 0.39844-0.39844 0.89844-0.60156 1.5-0.60156 0.80078 0 1.5 0.60156 1.6992 1.3008l6.1992 18.602c-0.30078 1.8008 0.10156 3.6992 1.1992 5.1016l9 11.301c0.60156 0.80078 1.8008 0.89844 2.6016 0.30078 0.80078-0.60156 0.89844-1.8008 0.30078-2.6016l-9-11.301c-0.5-0.60156-0.60156-1.3984-0.39844-2.1992v-0.10156c0.19922-0.5 0.5-0.89844 0.89844-1.1992 0.5-0.30078 1-0.5 1.6016-0.5 0.60156 0 1.3008 0.30078 1.6992 0.80078l11 12.602c1.8008 2.1016 2.8984 4.6992 3.1016 7.5l1 16.699h-14.004z"/>
  <path d="m80.602 20.5c-0.5-5.1016-3.3984-9.6016-7.6992-12.398-6.5-4.1992-15.301-3.1016-21 2.6016l-1.9023 1.8984-2.1016-2.1016c-3.6016-3.6016-8.6016-5.3008-13.602-4.8008-5.1016 0.5-9.6016 3.3984-12.398 7.6992-4.1992 6.5-3.1016 15.301 2.6016 21l24.199 24.199c0.39844 0.39844 0.80078 0.60156 1.3008 0.60156s1-0.19922 1.3008-0.60156l24.398-24.398c3.6016-3.5977 5.4023-8.5977 4.9023-13.699zm-30.602 34.102-22.801-22.801c-4.5-4.3984-5.3008-11.301-2.1016-16.301 2.1992-3.3984 5.6992-5.6016 9.6016-6 0.5-0.10156 0.89844-0.10156 1.3984-0.10156 3.3984 0 6.6992 1.3008 9.1992 3.8008l3.3984 3.3984c0.69922 0.69922 2 0.69922 2.6992 0l3.1016-3.1016c4.3984-4.5 11.301-5.3008 16.301-2.1016 3.3984 2.1992 5.6016 5.6992 6 9.6016 0.39844 3.8984-0.89844 7.8008-3.6992 10.602z"/>
 </g>
</svg>
