<svg width="85" height="85" viewBox="0 0 85 85" fill="none" xmlns="http://www.w3.org/2000/svg">
<g clip-path="url(#clip0_201_28)">
<path d="M77.1065 43.6364C77.1065 50.6948 75.7686 56.6998 73.0927 61.6513C70.4379 66.6027 66.8138 70.3848 62.2205 72.9975C57.6483 75.5891 52.5072 76.8849 46.7972 76.8849C41.0451 76.8849 35.8829 75.5786 31.3107 72.9659C26.7385 70.3532 23.125 66.5711 20.4702 61.6197C17.8153 56.6682 16.4879 50.6738 16.4879 43.6364C16.4879 36.5779 17.8153 30.5729 20.4702 25.6214C23.125 20.67 26.7385 16.8984 31.3107 14.3068C35.8829 11.6941 41.0451 10.3878 46.7972 10.3878C52.5072 10.3878 57.6483 11.6941 62.2205 14.3068C66.8138 16.8984 70.4379 20.67 73.0927 25.6214C75.7686 30.5729 77.1065 36.5779 77.1065 43.6364ZM63.2319 43.6364C63.2319 39.0642 62.5471 35.2083 61.1776 32.0689C59.8291 28.9295 57.9222 26.5485 55.457 24.9261C52.9918 23.3037 50.1052 22.4925 46.7972 22.4925C43.4892 22.4925 40.6026 23.3037 38.1374 24.9261C35.6722 26.5485 33.7549 28.9295 32.3853 32.0689C31.0368 35.2083 30.3626 39.0642 30.3626 43.6364C30.3626 48.2086 31.0368 52.0644 32.3853 55.2038C33.7549 58.3433 35.6722 60.7242 38.1374 62.3466C40.6026 63.969 43.4892 64.7802 46.7972 64.7802C50.1052 64.7802 52.9918 63.969 55.457 62.3466C57.9222 60.7242 59.8291 58.3433 61.1776 55.2038C62.5471 52.0644 63.2319 48.2086 63.2319 43.6364Z" fill="url(#paint0_linear_201_28)"/>
<path d="M77.1065 43.6364C77.1065 50.6948 75.7686 56.6998 73.0927 61.6513C70.4379 66.6027 66.8138 70.3848 62.2205 72.9975C57.6483 75.5891 52.5072 76.8849 46.7972 76.8849C41.0451 76.8849 35.8829 75.5786 31.3107 72.9659C26.7385 70.3532 23.125 66.5711 20.4702 61.6197C17.8153 56.6682 16.4879 50.6738 16.4879 43.6364C16.4879 36.5779 17.8153 30.5729 20.4702 25.6214C23.125 20.67 26.7385 16.8984 31.3107 14.3068C35.8829 11.6941 41.0451 10.3878 46.7972 10.3878C52.5072 10.3878 57.6483 11.6941 62.2205 14.3068C66.8138 16.8984 70.4379 20.67 73.0927 25.6214C75.7686 30.5729 77.1065 36.5779 77.1065 43.6364ZM63.2319 43.6364C63.2319 39.0642 62.5471 35.2083 61.1776 32.0689C59.8291 28.9295 57.9222 26.5485 55.457 24.9261C52.9918 23.3037 50.1052 22.4925 46.7972 22.4925C43.4892 22.4925 40.6026 23.3037 38.1374 24.9261C35.6722 26.5485 33.7549 28.9295 32.3853 32.0689C31.0368 35.2083 30.3626 39.0642 30.3626 43.6364C30.3626 48.2086 31.0368 52.0644 32.3853 55.2038C33.7549 58.3433 35.6722 60.7242 38.1374 62.3466C40.6026 63.969 43.4892 64.7802 46.7972 64.7802C50.1052 64.7802 52.9918 63.969 55.457 62.3466C57.9222 60.7242 59.8291 58.3433 61.1776 55.2038C62.5471 52.0644 63.2319 48.2086 63.2319 43.6364Z" fill="black" fill-opacity="0.25"/>
<path d="M67.5558 32.043H53.0906C52.8264 30.1715 52.2869 28.5092 51.4723 27.0561C50.6577 25.581 49.6119 24.326 48.3349 23.2912C47.0579 22.2564 45.5827 21.4638 43.9094 20.9134C42.2582 20.3629 40.4638 20.0877 38.5263 20.0877C35.0256 20.0877 31.9762 20.9574 29.3782 22.6967C26.7802 24.4141 24.7656 26.924 23.3345 30.2266C21.9034 33.5071 21.1879 37.4922 21.1879 42.1818C21.1879 47.0035 21.9034 51.0547 23.3345 54.3352C24.7876 57.6158 26.8132 60.0927 29.4112 61.766C32.0092 63.4393 35.0146 64.2759 38.4272 64.2759C40.3427 64.2759 42.1151 64.0227 43.7443 63.5163C45.3956 63.0099 46.8597 62.2724 48.1367 61.3036C49.4137 60.3129 50.4705 59.1129 51.3072 57.7038C52.1658 56.2947 52.7603 54.6875 53.0906 52.8821L67.5558 52.9482C67.1815 56.0526 66.2457 59.0469 64.7486 61.9311C63.2734 64.7933 61.2809 67.3583 58.771 69.6261C56.283 71.8718 53.3107 73.6552 49.8541 74.9762C46.4194 76.2752 42.5334 76.9247 38.196 76.9247C32.1634 76.9247 26.7692 75.5597 22.0135 72.8295C17.2798 70.0994 13.5369 66.1474 10.7848 60.9734C8.05469 55.7994 6.68963 49.5355 6.68963 42.1818C6.68963 34.8061 8.0767 28.5312 10.8509 23.3572C13.625 18.1832 17.3899 14.2422 22.1456 11.5341C26.9013 8.80398 32.2514 7.43892 38.196 7.43892C42.1151 7.43892 45.7479 7.98934 49.0945 9.0902C52.4631 10.191 55.4464 11.7983 58.0444 13.9119C60.6424 16.0035 62.756 18.5685 64.3853 21.6069C66.0366 24.6452 67.0934 28.1239 67.5558 32.043Z" fill="url(#paint1_linear_201_28)"/>
<path d="M67.5558 32.043H53.0906C52.8264 30.1715 52.2869 28.5092 51.4723 27.0561C50.6577 25.581 49.6119 24.326 48.3349 23.2912C47.0579 22.2564 45.5827 21.4638 43.9094 20.9134C42.2582 20.3629 40.4638 20.0877 38.5263 20.0877C35.0256 20.0877 31.9762 20.9574 29.3782 22.6967C26.7802 24.4141 24.7656 26.924 23.3345 30.2266C21.9034 33.5071 21.1879 37.4922 21.1879 42.1818C21.1879 47.0035 21.9034 51.0547 23.3345 54.3352C24.7876 57.6158 26.8132 60.0927 29.4112 61.766C32.0092 63.4393 35.0146 64.2759 38.4272 64.2759C40.3427 64.2759 42.1151 64.0227 43.7443 63.5163C45.3956 63.0099 46.8597 62.2724 48.1367 61.3036C49.4137 60.3129 50.4705 59.1129 51.3072 57.7038C52.1658 56.2947 52.7603 54.6875 53.0906 52.8821L67.5558 52.9482C67.1815 56.0526 66.2457 59.0469 64.7486 61.9311C63.2734 64.7933 61.2809 67.3583 58.771 69.6261C56.283 71.8718 53.3107 73.6552 49.8541 74.9762C46.4194 76.2752 42.5334 76.9247 38.196 76.9247C32.1634 76.9247 26.7692 75.5597 22.0135 72.8295C17.2798 70.0994 13.5369 66.1474 10.7848 60.9734C8.05469 55.7994 6.68963 49.5355 6.68963 42.1818C6.68963 34.8061 8.0767 28.5312 10.8509 23.3572C13.625 18.1832 17.3899 14.2422 22.1456 11.5341C26.9013 8.80398 32.2514 7.43892 38.196 7.43892C42.1151 7.43892 45.7479 7.98934 49.0945 9.0902C52.4631 10.191 55.4464 11.7983 58.0444 13.9119C60.6424 16.0035 62.756 18.5685 64.3853 21.6069C66.0366 24.6452 67.0934 28.1239 67.5558 32.043Z" fill="white" fill-opacity="0.25"/>
</g>
<defs>
<linearGradient id="paint0_linear_201_28" x1="52.5" y1="6" x2="49" y2="83.5" gradientUnits="userSpaceOnUse">
<stop stop-color="#7343D8"/>
<stop offset="1" stop-color="#32A0F0"/>
</linearGradient>
<linearGradient id="paint1_linear_201_28" x1="39" y1="-0.5" x2="38.5" y2="92" gradientUnits="userSpaceOnUse">
<stop stop-color="#7C3EFF"/>
<stop offset="1" stop-color="#0094FF"/>
</linearGradient>
<clipPath id="clip0_201_28">
<rect width="85" height="85" fill="white"/>
</clipPath>
</defs>
</svg>
