<svg width="26" height="26" viewBox="0 0 26 26" fill="none" xmlns="http://www.w3.org/2000/svg">
<mask id="mask0_181_45" style="mask-type:alpha" maskUnits="userSpaceOnUse" x="0" y="0" width="26" height="26">
<rect width="26" height="26" fill="#D9D9D9"/>
</mask>
<g mask="url(#mask0_181_45)">
<path d="M13.007 25C13.3034 25 13.5888 24.8789 13.7976 24.6616L22.957 15.2163C27.1115 10.9322 26.5894 5.902 23.9192 3.15624C21.4205 0.571935 16.9751 -0.0818197 13.0073 3.39467C9.03935 -0.0664221 4.59401 0.564246 2.09554 3.14855C0.674655 4.60605 -0.0823791 6.61353 0.00712458 8.67847C0.178676 11.1801 1.27321 13.5202 3.06514 15.216L12.2169 24.6613C12.4277 24.8747 12.7111 24.9978 13.0075 24.9997L13.007 25ZM3.67615 4.77943C4.61033 3.8257 5.8746 3.29308 7.18918 3.30268C9.11912 3.3969 10.9334 4.2891 12.2162 5.77928C12.6544 6.22538 13.3592 6.22538 13.7974 5.77928C15.0467 4.34871 16.7771 3.46419 18.6383 3.30268C20.0293 3.22961 21.3849 3.76994 22.3676 4.78711C24.1949 6.6638 24.6648 10.225 21.4054 13.586L13.0069 22.2235L4.64556 13.586C1.37865 10.2172 1.81892 6.65637 3.67615 4.77943Z" fill="#585858"/>
</g>
</svg>
