<?xml version="1.0" encoding="UTF-8"?>
<svg width="100pt" height="100pt" version="1.1" viewBox="0 0 100 100" xmlns="http://www.w3.org/2000/svg">
 <g fill="#fff">
  <path d="m63 36.801c0-5.3008 4.3984-9.6992 9.6992-9.6992h13.602l-4.6992 4.5c-1.3008 1.1992-1.3008 3.1992-0.10156 4.5 0.60156 0.60156 1.3984 1 2.3008 1 0.80078 0 1.6016-0.30078 2.1992-0.89844l10-9.7031c1.3008-1.1992 1.3008-3.1992 0.10156-4.5l-9.6992-10.102c-1.1992-1.3008-3.1992-1.3008-4.5-0.10156-1.3008 1.1992-1.3008 3.1992-0.10156 4.5l4.3008 4.5-13.402 0.003906c-8.8008 0-16 7.1992-16 16v7.8008l6.3008 1.1016z"/>
  <path d="m96.602 55.898c-1.1016-1.5-3-2.3008-4.8008-2l-15.398 2.6016c0 0.39844-0.10156 0.69922-0.10156 1.1016-0.80078 4.1016-4.3008 7.1992-8.5 7.5l-1 0.10156c-5.5 0.39844-11.199 0.30078-16.699-0.30078l-4.5-0.5c-1.3984-0.10156-2.3984-1.3984-2.3008-2.8008 0.10156-1.3984 1.3008-2.3984 2.8008-2.3008l4.5 0.5c5.1992 0.5 10.602 0.60156 15.801 0.30078l1-0.10156c1.8984-0.10156 3.5-1.5 3.8984-3.3984 0.19922-1.1016 0-2.3008-0.69922-3.1992-0.60156-0.89844-1.6016-1.6016-2.6992-1.8008l-23.5-4.1016c-2.6016-0.5-5.3008 0-7.6992 1.1992l-21.902 11.5 18.199 18.199 19.602 4.6992c3.3984 0.80078 7 0.30078 10.102-1.5l32.297-18.598c1.1992-0.69922 2.1016-1.8008 2.3984-3.1992 0.30078-1.4023 0-2.6992-0.79688-3.9023z"/>
  <path d="m3.1016 71c-0.39844 0.39844-0.60156 0.89844-0.60156 1.5s0.19922 1.1016 0.60156 1.5l14.398 14.398c0.80078 0.80078 2.1992 0.80078 3 0l7.6992-7.6992-17.398-17.398z"/>
 </g>
</svg>
