<?xml version="1.0" encoding="UTF-8"?>
<svg width="100pt" height="100pt" version="1.1" viewBox="0 0 100 100" xmlns="http://www.w3.org/2000/svg">
 <path d="m92.215 39.969c-0.074219 2.2383-0.55859 4.4414-1.4336 6.5039-0.46484 1.1602-1.7852 1.7266-2.9492 1.2617-1.1602-0.46484-1.7266-1.7852-1.2617-2.9492 0.66016-1.5391 1.0391-3.1914 1.1094-4.8672 0.023437-2.2695-0.91406-3.9023-3.1367-5.4688-1.5508-1.0938-3.4609-1.5586-5.3438-1.3047-0.59766 0.082031-1.2031-0.074219-1.6797-0.44141-0.48047-0.36328-0.79688-0.90234-0.875-1.5-0.082031-0.59766 0.078125-1.2031 0.44141-1.6797 0.36719-0.48047 0.91016-0.79297 1.5039-0.875 3.0195-0.41016 6.0781 0.33984 8.5664 2.0938 3.4414 2.4258 5.1016 5.4453 5.0625 9.2266zm-2.7539 12.586c2.832-4.4766 4.3477-8.8242 4.3906-12.566 0.046876-4.3633-1.8359-7.8242-5.7539-10.582-5.7109-4.0391-13.547-3.1172-18.164 2.1367-0.42969 0.48828-1.0469 0.76953-1.6992 0.76953s-1.2734-0.28125-1.7031-0.76953c-4.6172-5.25-12.449-6.1719-18.16-2.1367-3.918 2.7578-5.8008 6.2188-5.7539 10.582 0.039062 3.7422 1.5586 8.0898 4.3867 12.566 3.6406 5.7656 10.781 12.5 21.227 20.031 10.445-7.5273 17.586-14.266 21.23-20.031zm-57.691 20.031c-10.449-7.5312-17.586-14.266-21.23-20.031-2.832-4.4766-4.3477-8.8242-4.3867-12.566-0.046875-4.3633 1.8359-7.8242 5.7539-10.582h-0.003906c5.7109-4.0391 13.547-3.1172 18.164 2.1367 0.42969 0.48828 1.0508 0.76953 1.7031 0.76953 0.64844 0 1.2695-0.28125 1.7031-0.76953 2.6992-3.0742 6.6328-4.7773 10.723-4.6367-3.9531 3.1992-6.2109 8.043-6.1172 13.129 0.050781 4.5898 1.8086 9.7578 5.0898 14.945 1.125 1.7539 2.3789 3.418 3.75 4.9883-4.6992 4.6133-9.7656 8.832-15.148 12.617zm58.938-46.887c-3.332-2.3555-7.3633-3.5195-11.438-3.3125-4.0742 0.21094-7.9609 1.7852-11.035 4.4688-2.457-2.1484-5.4453-3.5938-8.6562-4.1875-3.207-0.59766-6.5156-0.31641-9.5781 0.80469-3.0625-1.125-6.3711-1.4023-9.5781-0.80859s-6.1953 2.0391-8.6484 4.1836c-3.0781-2.6836-6.9648-4.2539-11.043-4.4648-4.0742-0.20703-8.1055 0.96094-11.438 3.3164-5.0859 3.582-7.7422 8.5391-7.6797 14.34 0.050781 4.5898 1.8086 9.7578 5.0898 14.945 4.1133 6.5039 12.105 13.992 23.754 22.246 0.78516 0.55469 1.8359 0.55469 2.6211 0 6.0234-4.1602 11.684-8.8203 16.922-13.934 5.2344 5.1133 10.895 9.7695 16.918 13.93 0.78906 0.55469 1.8398 0.55469 2.625 0 11.648-8.2539 19.641-15.738 23.754-22.246 3.2773-5.1875 5.0391-10.355 5.0898-14.945 0.0625-5.8008-2.5938-10.762-7.6797-14.336z" fill="#3cbeef" fill-rule="evenodd"/>
</svg>
